<svg xmlns="http://www.w3.org/2000/svg" viewBox="0 0 512 512">
  <rect width="512" height="512" fill="#2563eb" rx="80"/>
  <g transform="translate(256, 256)">
    <!-- Dollar sign -->
    <path d="M 0,-120 L 0,-180 M 0,120 L 0,180" stroke="#ffffff" stroke-width="32" stroke-linecap="round"/>
    <path d="M -60,-80 Q -60,-120 -20,-120 L 20,-120 Q 60,-120 60,-80 Q 60,-40 20,-40 L -40,-40 Q -80,-40 -80,0 Q -80,40 -40,40 L 40,40 Q 80,40 80,80 Q 80,120 40,120 L -20,120 Q -60,120 -60,80"
          fill="none" stroke="#ffffff" stroke-width="32" stroke-linecap="round" stroke-linejoin="round"/>
    <!-- Upward trending arrow -->
    <g transform="translate(100, -80)">
      <path d="M -30,30 L 0,0 L 30,30" fill="none" stroke="#10b981" stroke-width="20" stroke-linecap="round" stroke-linejoin="round"/>
      <path d="M 0,0 L 0,60" stroke="#10b981" stroke-width="20" stroke-linecap="round"/>
    </g>
  </g>
</svg>
